<?xml version="1.0" encoding="UTF-8"?>
<svg width="134px" height="93px" viewBox="0 0 134 93" version="1.1" xmlns="http://www.w3.org/2000/svg" xmlns:xlink="http://www.w3.org/1999/xlink">
    <!-- Generator: Sketch 48.2 (47327) - http://www.bohemiancoding.com/sketch -->
    <title>EcosystemWalaLogo</title>
    <desc>Created with Sketch.</desc>
    <defs></defs>
    <g id="Dala.org-1440-Desktop" stroke="none" stroke-width="1" fill="none" fill-rule="evenodd" transform="translate(-1070.000000, -1874.000000)">
        <g id="EcosystemWalaLogo" transform="translate(1070.000000, 1874.000000)" fill="#FFFFFF" fill-rule="nonzero">
            <polygon id="Shape" opacity="0.6" points="63.9358702 4.52751617 71.155423 34.1399192 89.0819397 34.2622845"></polygon>
            <g id="Group" transform="translate(0.000000, 26.920366)">
                <polygon id="Shape" points="30.2854122 16.2745851 43.1337689 18.5383432 4.46633352 27.9604715"></polygon>
                <polygon id="Shape" opacity="0.6" points="72.1955281 11.5023384 70.6047792 5.13934268 55.0032032 6.42417835 44.7857005 0.244730604 43.8679607 10.1563201 30.2854122 16.2745851 43.1337689 18.5383432 75.2546606 24.1671471"></polygon>
                <polygon id="Shape" points="0.305913255 11.0128772 51.4546094 6.7300916 30.2854122 16.2745851"></polygon>
            </g>
            <g id="Group" transform="translate(8.565571, 0.000000)">
                <polygon id="Shape" points="84.7991542 33.2221794 80.5163686 34.2622845 90.5503233 38.5450701"></polygon>
                <polygon id="Shape" opacity="0.6" points="80.5163686 34.2622845 0.428278556 0 63.6299569 38.4227048 90.5503233 38.5450701"></polygon>
            </g>
            <polygon id="Shape" points="89.0819397 34.2622845 75.2546606 51.0875135 8.99384968 0"></polygon>
            <g id="Group" transform="translate(15.907489, 53.840733)">
                <polygon id="Shape" points="35.9142161 10.1563201 41.6653853 10.1563201 32.9162662 38.4227048 26.7368184 38.4227048 21.0468319 17.5594208 15.3568454 38.4227048 9.17739764 38.4227048 0.367095905 10.1563201 6.30181304 10.1563201 12.1753475 32.8550835 18.1712473 10.1563201 24.2895124 10.1563201 30.0406816 32.7939009"></polygon>
                <path d="M46.62118,34.7517457 C44.0515087,31.9985264 42.766673,28.4499327 42.766673,24.1671471 C42.766673,19.8843615 44.0515087,16.3969504 46.5599973,13.7049138 C49.1296687,11.0128772 52.2499839,9.66685884 56.1044909,9.66685884 C58.3070663,9.66685884 60.2649111,10.1563201 61.9780254,11.1964251 C63.6911396,12.1753475 64.9759753,13.5213659 65.893715,15.1732974 L65.893715,10.1563201 L71.7672495,10.1563201 L71.7672495,38.4227048 L65.893715,38.4227048 L65.893715,33.1609968 C64.9147926,34.9352937 63.6299569,36.281312 61.9168427,37.3214171 C60.2649111,38.3615221 58.3070663,38.912166 56.0433082,38.912166 C52.3723492,38.8509833 49.1908513,37.504965 46.62118,34.7517457 Z M63.3852263,31.203152 C65.0983406,29.4900377 65.893715,27.165097 65.893715,24.2283298 C65.893715,21.2915625 65.0371579,19.0278044 63.3852263,17.3146902 C61.6721121,15.601576 59.6530846,14.7450189 57.3281439,14.7450189 C55.0032032,14.7450189 52.9841757,15.601576 51.2710615,17.2535076 C49.5579472,18.9054391 48.7625728,21.2303799 48.7625728,24.1059645 C48.7625728,27.0427317 49.6191299,29.3676724 51.2710615,31.0807867 C52.9841757,32.8550835 54.9420205,33.7116407 57.3281439,33.7116407 C59.6530846,33.7728233 61.6721121,32.9162662 63.3852263,31.203152 Z" id="Shape"></path>
                <polygon id="Shape" points="78.2526105 38.4227048 78.2526105 0.489461207 84.126145 0.489461207 84.126145 38.4227048"></polygon>
                <path d="M92.3858029,34.7517457 C89.8161315,31.9985264 88.5312959,28.4499327 88.5312959,24.1671471 C88.5312959,19.8843615 89.8161315,16.3969504 92.3246202,13.7049138 C94.8942916,11.0128772 98.0146068,9.66685884 101.869114,9.66685884 C104.071689,9.66685884 106.029534,10.1563201 107.742648,11.1964251 C109.455762,12.1753475 110.740598,13.5213659 111.658338,15.1732974 L111.658338,10.1563201 L117.531872,10.1563201 L117.531872,38.4227048 L111.658338,38.4227048 L111.658338,33.1609968 C110.679415,34.9352937 109.39458,36.281312 107.681466,37.3214171 C106.029534,38.3615221 104.071689,38.912166 101.807931,38.912166 C98.1369721,38.8509833 94.9554742,37.504965 92.3858029,34.7517457 Z M109.149849,31.203152 C110.862963,29.4900377 111.658338,27.165097 111.658338,24.2283298 C111.658338,21.2915625 110.801781,19.0278044 109.149849,17.3146902 C107.436735,15.601576 105.417708,14.7450189 103.092767,14.7450189 C100.767826,14.7450189 98.7487986,15.601576 97.0356843,17.2535076 C95.3225701,18.9054391 94.466013,21.2303799 94.466013,24.1059645 C94.466013,27.0427317 95.3225701,29.3676724 97.0356843,31.0807867 C98.7487986,32.8550835 100.706643,33.7116407 103.092767,33.7116407 C105.417708,33.7728233 107.436735,32.9162662 109.149849,31.203152 Z" id="Shape"></path>
            </g>
        </g>
    </g>
</svg>