<?xml version="1.0" encoding="UTF-8"?>
<svg width="109px" height="93px" viewBox="0 0 109 93" version="1.1" xmlns="http://www.w3.org/2000/svg" xmlns:xlink="http://www.w3.org/1999/xlink">
    <!-- Generator: Sketch 48.2 (47327) - http://www.bohemiancoding.com/sketch -->
    <title>EcosystemDalaLogo</title>
    <desc>Created with Sketch.</desc>
    <defs>
        <polygon id="path-1" points="0 0.189818841 32.3412757 0.189818841 32.3412757 38.9985964 0 38.9985964"></polygon>
        <polygon id="path-3" points="0 38.7173913 109.086957 38.7173913 109.086957 0 0 0"></polygon>
    </defs>
    <g id="Dala.org-1440-Desktop" stroke="none" stroke-width="1" fill="none" fill-rule="evenodd" transform="translate(-1178.000000, -1812.000000)">
        <g id="EcosystemDalaLogo" transform="translate(1178.000000, 1812.000000)">
            <g id="dala-logomark" transform="translate(0.000000, 54.000000)">
                <g id="Group-3">
                    <mask id="mask-2" fill="white">
                        <use xlink:href="#path-1"></use>
                    </mask>
                    <g id="Clip-2"></g>
                    <path d="M20.7769278,31.2505964 C19.0703104,32.9981072 17.041293,33.8683536 14.6968843,33.8683536 C12.3489713,33.8683536 10.3234583,32.980562 8.61333652,31.1979605 C6.90671913,29.4223772 6.05516261,27.0642902 6.05516261,24.1272087 C6.05516261,21.1936362 6.90671913,18.877658 8.61333652,17.182783 C10.3234583,15.491417 12.3489713,14.6457341 14.6968843,14.6457341 C17.041293,14.6457341 19.0703104,15.5124714 20.7769278,17.2389279 C22.4835452,18.9653844 23.3351017,21.2953989 23.3351017,24.2324804 C23.3351017,27.169562 22.4835452,29.5101036 20.7769278,31.2505964 Z M32.3412757,4.54315616 L29.2889887,4.54315616 L29.2889887,0.188415217 L23.387667,0.188415217 L23.387667,4.54315616 L19.0948409,4.54315616 L19.0948409,7.96097862 L23.3351017,7.96097862 L23.3351017,9.98219601 L23.3351017,15.0598029 C22.4064496,13.4035275 21.0853104,12.0630674 19.378693,11.0454406 C17.6685713,10.0243047 15.6956235,9.51900036 13.4528409,9.51900036 C9.6225887,9.51900036 6.42311913,10.8699877 3.85443217,13.5859986 C1.28574522,16.2949913 -0.000350434783,19.8180855 -0.000350434783,24.1552812 C-0.000350434783,28.4889678 1.29275391,32.0506616 3.88246696,34.8298355 C6.46867565,37.6090094 9.65763217,38.9985964 13.4528409,38.9985964 C15.6956235,38.9985964 17.6615626,38.4722377 19.3541626,37.4195203 C21.0432583,36.3632938 22.3714061,34.9596707 23.3351017,33.1981236 L23.3351017,38.5318917 L23.387667,38.5318917 L29.2889887,38.5318917 L29.2889887,9.98219601 L29.2889887,7.96097862 L32.3412757,7.96097862 L32.3412757,4.54315616 Z" id="Fill-1" fill="#FFFFFF" mask="url(#mask-2)"></path>
                </g>
                <path d="M54.2795681,30.9960952 C55.9756599,29.2573167 56.8219644,26.923785 56.8219644,23.9955 C56.8219644,21.0672151 55.9756599,18.744179 54.2795681,17.0228932 C52.5834764,15.3016075 50.5704558,14.4409646 48.2370236,14.4409646 C45.9070742,14.4409646 43.8940536,15.2841147 42.1944791,16.970415 C40.4983874,18.6602138 39.6486001,20.9657572 39.6486001,23.8940421 C39.6486001,26.8223271 40.4983874,29.1733515 42.1944791,30.943617 C43.8940536,32.717381 45.9070742,33.6025137 48.2370236,33.6025137 C50.5704558,33.6025137 52.5834764,32.7348737 54.2795681,30.9960952 M37.4893047,34.5611159 C34.9155638,31.7902657 33.6304348,28.2392391 33.6304348,23.918532 C33.6304348,19.5978248 34.9085984,16.0817837 37.4649256,13.3809044 C40.01777,10.6765266 43.1975067,9.32608696 47.0041356,9.32608696 C49.2330857,9.32608696 51.1938653,9.83337646 52.8934398,10.8479555 C54.5895315,11.8625345 55.8990397,13.1989799 56.8219644,14.8537933 L56.8219644,9.78789533 L62.7391304,9.78789533 L62.7391304,38.2520844 L56.8219644,38.2520844 L56.8219644,32.9342909 C55.8642124,34.6905622 54.544256,36.0934801 52.8655779,37.1430446 C51.1834171,38.1961076 49.2330857,38.7173913 47.0041356,38.7173913 C43.232334,38.7173913 40.0595628,37.3354647 37.4893047,34.5611159" id="Fill-4" fill="#FFFFFF"></path>
                <mask id="mask-4" fill="white">
                    <use xlink:href="#path-3"></use>
                </mask>
                <g id="Clip-7"></g>
                <polygon id="Fill-6" fill="#FFFFFF" mask="url(#mask-4)" points="69.5217391 38.1521739 75.4565217 38.1521739 75.4565217 0 69.5217391 0"></polygon>
                <path d="M100.344786,30.9960952 C102.040877,29.2573167 102.887182,26.923785 102.887182,23.9955 C102.887182,21.0672151 102.040877,18.744179 100.344786,17.0228932 C98.6486938,15.3016075 96.6356732,14.4409646 94.302241,14.4409646 C91.9722916,14.4409646 89.959271,15.2841147 88.2596965,16.970415 C86.5636048,18.6602138 85.7138175,20.9657572 85.7138175,23.8940421 C85.7138175,26.8223271 86.5636048,29.1733515 88.2596965,30.943617 C89.959271,32.717381 91.9722916,33.6025137 94.302241,33.6025137 C96.6356732,33.6025137 98.6486938,32.7348737 100.344786,30.9960952 M83.5545221,34.5611159 C80.9807812,31.7902657 79.6956522,28.2392391 79.6956522,23.918532 C79.6956522,19.5978248 80.9738158,16.0817837 83.530143,13.3809044 C86.0829874,10.6765266 89.2627241,9.32608696 93.069353,9.32608696 C95.2983031,9.32608696 97.2590827,9.83337646 98.9586572,10.8479555 C100.654749,11.8625345 101.964257,13.1989799 102.887182,14.8537933 L102.887182,9.78789533 L108.804348,9.78789533 L108.804348,38.2520844 L102.887182,38.2520844 L102.887182,32.9342909 C101.92943,34.6905622 100.609473,36.0934801 98.9307953,37.1430446 C97.2486345,38.1961076 95.2983031,38.7173913 93.069353,38.7173913 C89.2975514,38.7173913 86.1247802,37.3354647 83.5545221,34.5611159" id="Fill-8" fill="#FFFFFF" mask="url(#mask-4)"></path>
            </g>
            <g id="token-logo" transform="translate(33.000000, 0.000000)" fill-rule="nonzero">
                <path d="M22.7254484,0.338273543 C22.1026457,0.0273991031 21.0846637,0.0273991031 20.4629148,0.338273543 L1.13073991,10.0048879 C0.508991031,10.3157623 0,11.1387892 0,11.8343049 L0,35.2183857 C0,35.9139013 0.508991031,36.7369283 1.13073991,37.0478027 L20.4629148,46.714417 C21.0846637,47.0252915 22.1026457,47.0252915 22.7254484,46.714417 L42.0565695,37.0478027 C42.6783184,36.7369283 43.1873094,35.9139013 43.1873094,35.2183857 L43.1873094,11.8343049 C43.1873094,11.1387892 42.6783184,10.3157623 42.0565695,10.0048879 L22.7254484,0.338273543 Z" id="Shape" fill="#1DC4BD"></path>
                <polygon id="Shape" fill="#5D598D" points="21.5936547 4.09195067 38.8687892 12.728991 38.8687892 34.3236996 21.5936547 25.6856054"></polygon>
                <polygon id="Shape" fill="#908CC0" points="4.31852018 34.3236996 21.5936547 25.6856054 21.5936547 4.09195067 4.31852018 12.728991"></polygon>
                <polygon id="Shape" fill="#746FB0" points="21.5936547 42.9607399 4.31852018 34.3236996 21.5936547 25.6856054 38.8687892 34.3236996"></polygon>
                <path d="M30.516278,15.2317937 L28.8301794,15.2317937 L28.8301794,12.8333184 L25.5770628,12.8333184 L25.5770628,15.2317937 L23.2059865,15.2317937 L23.2059865,17.116009 L25.5475561,17.116009 L25.5475561,18.2309417 L25.5475561,21.0288117 C25.0283411,20.1105946 24.2744261,19.3468602 23.3630045,18.8158072 C22.4208969,18.2537743 21.3319581,17.9727578 20.0961883,17.9727578 C17.9829447,17.9727578 16.2174589,18.7199103 14.7997309,20.2142152 C13.382003,21.7085202 12.673139,23.6499925 12.673139,26.0386323 C12.673139,28.427272 13.3869208,30.387713 14.8144843,31.9199552 C16.2420478,33.4521973 18.0026158,34.2186697 20.0961883,34.2193722 C21.3333632,34.2193722 22.418438,33.9288714 23.3514126,33.34787 C24.2744635,32.7771462 25.0322692,31.97502 25.5496637,31.0210538 L25.5496637,33.9622422 L28.832287,33.9622422 L28.832287,17.116009 L30.5183857,17.116009 L30.516278,15.2317937 Z M24.132287,29.9503812 C23.1901794,30.9114574 22.0717339,31.3919955 20.7769507,31.3919955 C19.4821674,31.3919955 18.3640732,30.9019731 17.4226682,29.9219283 C16.4861809,28.9425859 16.0179372,27.6449925 16.0179372,26.029148 C16.0179372,24.4133034 16.488991,23.1381913 17.4310987,22.2038117 C18.3732063,21.2708371 19.4913004,20.8043498 20.7853812,20.8043498 C22.0794619,20.8043498 23.1950972,21.278565 24.132287,22.2269955 C25.0743946,23.1796413 25.5454484,24.4645889 25.5454484,26.0818386 C25.5454484,27.6990882 25.0743946,28.9886024 24.132287,29.9503812 Z" id="Shape" fill="#FFFFFF"></path>
            </g>
        </g>
    </g>
</svg>