<?xml version="1.0" encoding="UTF-8"?>
<svg width="391px" height="452px" viewBox="0 0 391 452" version="1.1" xmlns="http://www.w3.org/2000/svg" xmlns:xlink="http://www.w3.org/1999/xlink">
    <!-- Generator: Sketch 48.2 (47327) - http://www.bohemiancoding.com/sketch -->
    <title>hexagon-lock</title>
    <desc>Created with Sketch.</desc>
    <defs>
        <polygon id="path-1" points="0 0.486408266 138.694013 0.486408266 138.694013 160.999838 0 160.999838"></polygon>
    </defs>
    <g id="Dala.org-1440-Desktop" stroke="none" stroke-width="1" fill="none" fill-rule="evenodd" transform="translate(-523.000000, -1755.000000)">
        <g id="hexagon-lock" transform="translate(523.000000, 1755.000000)">
            <path d="M193.678532,0.489475249 L1.82146817,111.662055 C0.69580084,112.314689 0,113.523067 0,114.828334 L0,337.171666 C0,338.478761 0.69580084,339.685311 1.82146817,340.337945 L193.678532,451.510525 C194.806021,452.163158 196.195801,452.163158 197.321468,451.510525 L389.178532,340.337945 C390.304199,339.685311 391,338.478761 391,337.171666 L391,114.828334 C391,113.523067 390.304199,112.314689 389.178532,111.662055 L197.321468,0.489475249 C196.195801,-0.163158416 194.806021,-0.163158416 193.678532,0.489475249" id="Fill-1" fill="#25969B" opacity="0.401494565"></path>
            <path d="M194.358671,84.3064635 L74.1413292,153.912305 C73.4359877,154.320923 73,155.077495 73,155.894731 L73,295.105269 C73,295.923649 73.4359877,296.679077 74.1413292,297.087695 L194.358671,366.693537 C195.065154,367.102154 195.935988,367.102154 196.641329,366.693537 L316.858671,297.087695 C317.564012,296.679077 318,295.923649 318,295.105269 L318,155.894731 C318,155.077495 317.564012,154.320923 316.858671,153.912305 L196.641329,84.3064635 C195.935988,83.8978455 195.065154,83.8978455 194.358671,84.3064635" id="Fill-1" fill="#5D598D"></path>
            <g id="dalaHexagon" transform="translate(126.000000, 145.000000)" opacity="0.691689312">
                <g id="Page-1-Copy-18">
                    <g id="Group-3">
                        <mask id="mask-2" fill="white">
                            <use xlink:href="#path-1"></use>
                        </mask>
                        <g id="Clip-2"></g>
                        <path d="M68.7008348,0.660229839 L0.645719515,40.1396371 C0.246425278,40.3713992 -0.000387664307,40.8005161 -0.000387664307,41.2640403 L-0.000387664307,120.222206 C-0.000387664307,120.686379 0.246425278,121.114847 0.645719515,121.346609 L68.7008348,160.826016 C69.1007751,161.057778 69.5937549,161.057778 69.9930491,160.826016 L138.048164,121.346609 C138.447459,121.114847 138.694272,120.686379 138.694272,120.222206 L138.694272,41.2640403 C138.694272,40.8005161 138.447459,40.3713992 138.048164,40.1396371 L69.9930491,0.660229839 C69.5937549,0.428467742 69.1007751,0.428467742 68.7008348,0.660229839" id="Fill-1" fill="#746FB0" mask="url(#mask-2)"></path>
                    </g>
                </g>
            </g>
            <g id="Group-12-Copy-9" transform="translate(157.000000, 179.000000)">
                <polygon id="Fill-7" fill="#25969B" points="0 69.6666667 0 23 41 46.3333333 41 93"></polygon>
                <polygon id="Fill-8" fill="#4AD0CA" points="81 69.6666667 81 23 40 46.3333333 40 93"></polygon>
                <polygon id="Fill-9" fill="#1DC4BD" points="40 0 80 23 40 46 0 23"></polygon>
            </g>
        </g>
    </g>
</svg>