<svg xmlns="http://www.w3.org/2000/svg" viewBox="0 0 409.82 444.5"><defs><style>.cls-1{fill:#1dc4bd;}.cls-2{fill:#5d598d;}.cls-3{fill:#908cc0;}.cls-4{fill:#746fb0;}</style></defs><title>Asset 8</title><g id="Layer_2" data-name="Layer 2"><g id="Layer_2-2" data-name="Layer 2"><path class="cls-1" d="M215.65,2.21c-5.91-2.95-15.57-2.95-21.47,0L10.73,93.94C4.83,96.89,0,104.7,0,111.3V333.2c0,6.6,4.83,14.41,10.73,17.36l183.45,91.73c5.9,2.95,15.56,2.95,21.47,0l183.44-91.73c5.9-2.95,10.73-10.76,10.73-17.36V111.3c0-6.6-4.83-14.41-10.73-17.36Z"/><polygon class="cls-2" points="204.91 37.83 368.84 119.79 368.84 324.71 204.91 242.74 204.91 37.83"/><polygon class="cls-3" points="40.98 324.71 204.91 242.74 204.91 37.83 40.98 119.79 40.98 324.71"/><polygon class="cls-4" points="204.91 406.67 40.98 324.71 204.91 242.74 368.84 324.71 204.91 406.67"/></g></g></svg>