<?xml version="1.0" encoding="UTF-8"?>
<svg width="182px" height="65px" viewBox="0 0 182 65" version="1.1" xmlns="http://www.w3.org/2000/svg" xmlns:xlink="http://www.w3.org/1999/xlink">
    <!-- Generator: Sketch 48.2 (47327) - http://www.bohemiancoding.com/sketch -->
    <title>dala-logomark</title>
    <desc>Created with Sketch.</desc>
    <defs>
        <polygon id="path-1" points="0 0.316364734 53.9021261 0.316364734 53.9021261 64.9976606 0 64.9976606"></polygon>
        <polygon id="path-3" points="0 64.5289855 181.811594 64.5289855 181.811594 0 0 0"></polygon>
    </defs>
    <g id="Dala.org-1440-Desktop" stroke="none" stroke-width="1" fill="none" fill-rule="evenodd" transform="translate(-625.000000, -643.000000)">
        <g id="dala-logomark" transform="translate(625.000000, 643.000000)">
            <g id="Group-3">
                <g id="Clip-2"></g>
                <path d="M34.628213,52.0843273 C31.7838507,54.9968454 28.4021551,56.447256 24.4948072,56.447256 C20.5816188,56.447256 17.2057638,54.9676033 14.3555609,51.9966008 C11.5111986,49.0372953 10.0919377,45.1071504 10.0919377,40.2120145 C10.0919377,35.3227271 11.5111986,31.4627633 14.3555609,28.6379716 C17.2057638,25.8190284 20.5816188,24.4095568 24.4948072,24.4095568 C28.4021551,24.4095568 31.7838507,25.854119 34.628213,28.7315465 C37.4725754,31.608974 38.8918362,35.4923315 38.8918362,40.3874674 C38.8918362,45.2826033 37.4725754,49.183506 34.628213,52.0843273 Z M53.9021261,7.57192693 L48.8149812,7.57192693 L48.8149812,0.314025362 L38.9794449,0.314025362 L38.9794449,7.57192693 L31.8247348,7.57192693 L31.8247348,13.2682977 L38.8918362,13.2682977 L38.8918362,16.6369934 L38.8918362,25.0996715 C37.3440826,22.3392126 35.1421841,20.1051123 32.2978217,18.4090676 C29.4476188,16.7071745 26.1593725,15.8650006 22.4214014,15.8650006 C16.0376478,15.8650006 10.7051986,18.1166461 6.42405362,22.6433309 C2.1429087,27.1583188 -0.000584057971,33.0301425 -0.000584057971,40.2588019 C-0.000584057971,47.4816129 2.15458986,53.4177693 6.47077826,58.0497258 C10.7811261,62.6816824 16.0960536,64.9976606 22.4214014,64.9976606 C26.1593725,64.9976606 29.4359377,64.1203961 32.2569377,62.3658671 C35.0720971,60.6054897 37.2856768,58.2661178 38.8918362,55.3302059 L38.8918362,64.2198194 L38.9794449,64.2198194 L48.8149812,64.2198194 L48.8149812,16.6369934 L48.8149812,13.2682977 L53.9021261,13.2682977 L53.9021261,7.57192693 Z" id="Fill-1" fill="#5c588d" mask="url(#mask-2)"></path>
            </g>
            <path d="M90.4659469,51.6601586 C93.2927665,48.7621945 94.703274,44.8729749 94.703274,39.9925 C94.703274,35.1120251 93.2927665,31.2402983 90.4659469,28.3714887 C87.6391273,25.5026791 84.284093,24.0682743 80.3950394,24.0682743 C76.5117903,24.0682743 73.156756,25.4735245 70.3241319,28.284025 C67.4973123,31.1003564 66.0810002,34.9429286 66.0810002,39.8234035 C66.0810002,44.7038784 67.4973123,48.6222525 70.3241319,51.5726949 C73.156756,54.5289683 76.5117903,56.0041895 80.3950394,56.0041895 C84.284093,56.0041895 87.6391273,54.5581228 90.4659469,51.6601586 M62.4821745,57.6018599 C58.1926064,52.9837761 56.0507246,47.0653985 56.0507246,39.8642199 C56.0507246,32.6630413 58.1809973,26.8029729 62.4415426,22.3015074 C66.6962833,17.794211 71.9958445,15.5434783 78.340226,15.5434783 C82.0551429,15.5434783 85.3231088,16.3889608 88.1557329,18.0799258 C90.9825525,19.7708908 93.1650662,21.9982999 94.703274,24.7563221 L94.703274,16.3131589 L104.565217,16.3131589 L104.565217,63.753474 L94.703274,63.753474 L94.703274,54.8904849 C93.1070206,57.8176037 90.9070933,60.1558001 88.1092965,61.9050743 C85.3056951,63.6601793 82.0551429,64.5289855 78.340226,64.5289855 C72.0538901,64.5289855 66.765938,62.2257745 62.4821745,57.6018599" id="Fill-4" fill="#5c588d"></path>
            <g id="Clip-7"></g>
            <polygon id="Fill-6" fill="#5c588d" mask="url(#mask-4)" points="115.869565 63.5869565 125.76087 63.5869565 125.76087 0 115.869565 0"></polygon>
            <path d="M167.241309,51.6601586 C170.068129,48.7621945 171.478636,44.8729749 171.478636,39.9925 C171.478636,35.1120251 170.068129,31.2402983 167.241309,28.3714887 C164.41449,25.5026791 161.059455,24.0682743 157.170402,24.0682743 C153.287153,24.0682743 149.932118,25.4735245 147.099494,28.284025 C144.272675,31.1003564 142.856363,34.9429286 142.856363,39.8234035 C142.856363,44.7038784 144.272675,48.6222525 147.099494,51.5726949 C149.932118,54.5289683 153.287153,56.0041895 157.170402,56.0041895 C161.059455,56.0041895 164.41449,54.5581228 167.241309,51.6601586 M139.257537,57.6018599 C134.967969,52.9837761 132.826087,47.0653985 132.826087,39.8642199 C132.826087,32.6630413 134.95636,26.8029729 139.216905,22.3015074 C143.471646,17.794211 148.771207,15.5434783 155.115588,15.5434783 C158.830505,15.5434783 162.098471,16.3889608 164.931095,18.0799258 C167.757915,19.7708908 169.940429,21.9982999 171.478636,24.7563221 L171.478636,16.3131589 L181.34058,16.3131589 L181.34058,63.753474 L171.478636,63.753474 L171.478636,54.8904849 C169.882383,57.8176037 167.682456,60.1558001 164.884659,61.9050743 C162.081057,63.6601793 158.830505,64.5289855 155.115588,64.5289855 C148.829252,64.5289855 143.5413,62.2257745 139.257537,57.6018599" id="Fill-8" fill="#5c588d" mask="url(#mask-4)"></path>
        </g>
    </g>
</svg>