<svg width="45px" height="52px" xmlns="http://www.w3.org/2000/svg" viewBox="0 0 409.82 444.5">
    <defs>
        <style>
            .token-logo-1{fill:#1dc4bd;}.token-logo-2{fill:#5d598d;}.token-logo-3{fill:#908cc0;}.token-logo-4{fill:#746fb0;}.token-logo-5{fill:#fff;}
        </style>
    </defs>
    <title>token-logo_1</title>
    <g id="Layer_2" data-name="Layer 2">
        <g id="Layer_2-2" data-name="Layer 2">
            <path class="token-logo-1"
                  d="M215.65,2.21c-5.91-2.95-15.57-2.95-21.47,0L10.73,93.94C4.83,96.89,0,104.7,0,111.3V333.2c0,6.6,4.83,14.41,10.73,17.36l183.45,91.73c5.9,2.95,15.56,2.95,21.47,0l183.44-91.73c5.9-2.95,10.73-10.76,10.73-17.36V111.3c0-6.6-4.83-14.41-10.73-17.36Z"/>
            <polygon class="token-logo-2" points="204.91 37.83 368.84 119.79 368.84 324.71 204.91 242.74 204.91 37.83"/>
            <polygon class="token-logo-3" points="40.98 324.71 204.91 242.74 204.91 37.83 40.98 119.79 40.98 324.71"/>
            <polygon class="token-logo-4"
                     points="204.91 406.67 40.98 324.71 204.91 242.74 368.84 324.71 204.91 406.67"/>
            <path class="token-logo-5"
                  d="M289.58,143.54h-16V120.78H242.71v22.76h-22.5v17.88h22.22V172h0v26.55a56.48,56.48,0,0,0-20.73-21q-13.41-8-31-8-30.08,0-50.26,21.27t-20.18,55.27q0,34,20.32,55.81t50.12,21.82q17.61,0,30.89-8.27a59.07,59.07,0,0,0,20.86-22.08v27.91H273.6V161.42h16ZM229,283.21q-13.41,13.68-31.84,13.68t-31.83-13.95Q152,269,152,246t13.41-36.3q13.41-13.28,31.83-13.28T229,209.92q13.41,13.56,13.41,36.58T229,283.21Z"/>
        </g>
    </g>
</svg>