<?xml version="1.0" encoding="UTF-8"?>
<svg width="45px" height="52px" viewBox="0 0 45 52" version="1.1" xmlns="http://www.w3.org/2000/svg" xmlns:xlink="http://www.w3.org/1999/xlink">
    <!-- Generator: Sketch 48.2 (47327) - http://www.bohemiancoding.com/sketch -->
    <title>dalaHexagon</title>
    <desc>Created with Sketch.</desc>
    <defs>
        <polygon id="path-1" points="0 0.157100806 44.9290465 0.157100806 44.9290465 51.9999476 0 51.9999476"></polygon>
    </defs>
    <g id="Dala.org-1440-Desktop" stroke="none" stroke-width="1" fill="none" fill-rule="evenodd" transform="translate(-45.000000, -13.000000)">
        <g id="dalaHexagon" transform="translate(45.000000, 13.000000)">
            <g id="Page-1-Copy-18">
                <g id="Group-3" opacity="0.691689312">
                    <mask id="mask-2" fill="white">
                        <use xlink:href="#path-1"></use>
                    </mask>
                    <g id="Clip-2"></g>
                    <path d="M22.2552,0.213241935 L0.209176744,12.9643548 C0.079827907,13.0392097 -0.000125581395,13.1778065 -0.000125581395,13.3275161 L-0.000125581395,38.8295323 C-0.000125581395,38.9794516 0.079827907,39.1178387 0.209176744,39.1926935 L22.2552,51.9438065 C22.3847581,52.0186613 22.5444558,52.0186613 22.6738047,51.9438065 L44.7198279,39.1926935 C44.8491767,39.1178387 44.9291302,38.9794516 44.9291302,38.8295323 L44.9291302,13.3275161 C44.9291302,13.1778065 44.8491767,13.0392097 44.7198279,12.9643548 L22.6738047,0.213241935 C22.5444558,0.138387097 22.3847581,0.138387097 22.2552,0.213241935" id="Fill-1" fill="#1DC4BD" mask="url(#mask-2)"></path>
                </g>
                <polygon id="Fill-4" fill="#908CC0" points="4.25 15.6667364 4.25 36.5 22.25 26.0832636 22.25 5.25"></polygon>
                <polygon id="Fill-5" fill="#5D598D" points="40.5 15.6667364 40.5 36.5 22.5 26.0832636 22.5 5.25"></polygon>
                <polygon id="Fill-6" fill="#746FB0" points="22.3748949 46.75 40.5 36.3748958 22.3748949 26 4.25 36.3748958"></polygon>
            </g>
            <path d="M23.9946082,31.7409192 C22.9812543,32.7748756 21.7786451,33.2913747 20.3867808,33.2913747 C18.9944373,33.2913747 17.7923073,32.764814 16.7789533,31.7107342 C15.7655994,30.6561754 15.2586829,29.2590406 15.2586829,27.5183717 C15.2586829,25.7796193 15.7655994,24.4078782 16.7789533,23.404586 C17.7923073,22.4017729 18.9944373,21.8996476 20.3867808,21.8996476 C21.7786451,21.8996476 22.9812543,22.4118345 23.9946082,23.4357293 C25.0079621,24.4591448 25.5143995,25.8409475 25.5143995,27.5801791 C25.5143995,29.3203689 25.0079621,30.707442 23.9946082,31.7409192 Z M30.8566672,15.9119956 L29.0455666,15.9119956 L29.0455666,13.3333333 L25.5455428,13.3333333 L25.5455428,15.9119956 L22.9956281,15.9119956 L22.9956281,17.9387035 L25.5455428,17.9387035 L25.5455428,19.1365214 L25.5143995,19.1365214 L25.5143995,22.1454398 C24.9619659,21.1632292 24.178593,20.3702738 23.1657182,19.7660944 C22.1523643,19.1628733 20.9799402,18.8605441 19.6498832,18.8605441 C17.3773831,18.8605441 15.4790814,19.6635612 13.9540197,21.2705537 C12.428958,22.8775461 11.6666667,24.9655822 11.6666667,27.5341829 C11.6666667,30.1032626 12.4342284,32.2119012 13.9693517,33.8596195 C15.5044751,35.5078169 17.3975065,36.3314364 19.6498832,36.3314364 C20.9799402,36.3314364 22.1470939,36.0200038 23.149907,35.3947429 C24.1531993,34.7704402 24.9413634,33.9362798 25.5143995,32.8922618 L25.5143995,36.0549801 L25.5455428,36.0549801 L29.0455666,36.0549801 L29.0455666,19.1365214 L29.0455666,17.9387035 L30.8566672,17.9387035 L30.8566672,15.9119956 Z" id="Fill-4" fill="#FFFFFF"></path>
        </g>
    </g>
</svg>