<svg xmlns="http://www.w3.org/2000/svg" viewBox="0 0 101.87 27"><defs><style>.cls-1{fill:#fff;}.cls-2{fill:#1dc4bd;}.cls-3{fill:#25969b;}</style></defs><title>kazi</title><g id="Layer_2" data-name="Layer 2"><g id="Layer_1-2" data-name="Layer 1"><path class="cls-1" d="M44.68,26.69h-4V1h4v14.9l6.93-8.35h5.48l-8.81,9.57,8.81,9.53H51.75l-7.07-8.22Z"/><path class="cls-1" d="M60.41,24.21a10.07,10.07,0,0,1-2.6-7.14A9.81,9.81,0,0,1,60.4,10a8.51,8.51,0,0,1,6.43-2.72,7.58,7.58,0,0,1,4,1A7.22,7.22,0,0,1,73.45,11V7.59h4v19.1h-4V23.12a7.54,7.54,0,0,1-2.67,2.82,7.3,7.3,0,0,1-4,1.06A8.43,8.43,0,0,1,60.41,24.21Zm11.32-2.39a6.44,6.44,0,0,0,1.72-4.7,6.39,6.39,0,0,0-1.72-4.68,5.69,5.69,0,0,0-8.14,0,6.21,6.21,0,0,0-1.72,4.64,6.5,6.5,0,0,0,1.72,4.73,5.56,5.56,0,0,0,8.14,0Z"/><path class="cls-1" d="M94,7.59v3.22L85.33,23.46H94v3.23H80.76V23.46l8.7-12.65h-8.7V7.59Z"/><path class="cls-1" d="M101.87,2.53a2.45,2.45,0,0,1-.73,1.8,2.55,2.55,0,0,1-3.57,0,2.41,2.41,0,0,1-.73-1.8,2.41,2.41,0,0,1,.73-1.8,2.55,2.55,0,0,1,3.57,0A2.45,2.45,0,0,1,101.87,2.53ZM97.36,26.69V7.59h4v19.1Z"/><path class="cls-2" d="M18.86,1.86h-9a2.69,2.69,0,0,0-2.7,2.69V27H21.55V4.55A2.69,2.69,0,0,0,18.86,1.86ZM18,7.24H10.78V5.45H18Z"/><path class="cls-3" d="M28.73,9.94V24.31A2.69,2.69,0,0,1,26,27H23.35V7.24H26A2.69,2.69,0,0,1,28.73,9.94Z"/><path class="cls-3" d="M5.39,27H2.69A2.7,2.7,0,0,1,0,24.31V9.94a2.7,2.7,0,0,1,2.69-2.7h2.7Z"/></g></g></svg>