<svg xmlns="http://www.w3.org/2000/svg" viewBox="0 0 61.14 74.43"><defs><style>.cls-1{fill:#ffffff;}.cls-2{fill:#1dc4bd;}.cls-3{fill:#25969b;}.cls-4{fill:none;}</style></defs><title>kazi</title><g id="Layer_2" data-name="Layer 2"><g id="Layer_1-2" data-name="Layer 1"><path class="cls-1" d="M4,65H0V39.39H4v14.9l6.93-8.35h5.48l-8.8,9.57L16.36,65H11L4,56.82Z"/><path class="cls-1" d="M19.69,62.56a10,10,0,0,1-2.6-7.14,9.85,9.85,0,0,1,2.58-7.07,8.47,8.47,0,0,1,6.43-2.72,7.64,7.64,0,0,1,4,1,7.27,7.27,0,0,1,2.65,2.69v-3.4h4V65h-4V61.47a7.54,7.54,0,0,1-2.67,2.82,7.27,7.27,0,0,1-3.95,1.06A8.41,8.41,0,0,1,19.69,62.56ZM31,60.17a6.4,6.4,0,0,0,1.72-4.7A6.35,6.35,0,0,0,31,50.79a5.69,5.69,0,0,0-8.14,0,6.21,6.21,0,0,0-1.72,4.64,6.5,6.5,0,0,0,1.72,4.73,5.46,5.46,0,0,0,4.07,1.79A5.53,5.53,0,0,0,31,60.17Z"/><path class="cls-1" d="M53.27,45.94v3.22L44.61,61.81h8.66V65H40V61.81l8.7-12.65H40V45.94Z"/><path class="cls-1" d="M61.14,40.88a2.52,2.52,0,0,1-4.3,1.8,2.58,2.58,0,0,1,0-3.6,2.52,2.52,0,0,1,4.3,1.8ZM56.63,65V45.94h3.95V65Z"/><path class="cls-2" d="M36.25,0H24.89a3.41,3.41,0,0,0-3.41,3.41V31.8H39.66V3.41A3.41,3.41,0,0,0,36.25,0ZM35.11,6.81H26V4.54h9.08Z"/><path class="cls-3" d="M48.74,10.22V28.4a3.4,3.4,0,0,1-3.4,3.4H41.93v-25h3.41A3.41,3.41,0,0,1,48.74,10.22Z"/><path class="cls-3" d="M19.21,31.8H15.8a3.4,3.4,0,0,1-3.4-3.4V10.22a3.41,3.41,0,0,1,3.4-3.41h3.41Z"/><rect class="cls-4" x="32.54" y="65.35" width="14.23" height="9.08"/></g></g></svg>