<svg xmlns="http://www.w3.org/2000/svg" viewBox="0 0 126.98 41.08"><defs><style>.cls-1{fill:#fff;}.cls-2{fill:#1dc4bd;}.cls-3{fill:#25969b;}</style></defs><title>kopa</title><g id="Layer_2" data-name="Layer 2"><g id="Layer_1-2" data-name="Layer 1"><path class="cls-1" d="M50.21,32h-4V6.35h4V21.26l6.93-8.36h5.48l-8.81,9.57L62.62,32H57.28l-7.07-8.21Z"/><path class="cls-1" d="M73,32.31a9.27,9.27,0,0,1-6.88-2.72,9.68,9.68,0,0,1-2.7-7.14,9.74,9.74,0,1,1,19.48,0A9.44,9.44,0,0,1,80,29.57,9.77,9.77,0,0,1,73,32.31Zm4.11-5.06a6.52,6.52,0,0,0,1.73-4.82,6.59,6.59,0,0,0-1.68-4.8,5.5,5.5,0,0,0-4.07-1.71,5.31,5.31,0,0,0-4,1.71,6.72,6.72,0,0,0-1.63,4.82A6.83,6.83,0,0,0,69,27.27,5.21,5.21,0,0,0,73,29,5.61,5.61,0,0,0,77.07,27.25Z"/><path class="cls-1" d="M96.58,12.59A8.45,8.45,0,0,1,103,15.31a9.88,9.88,0,0,1,2.57,7.07A10.1,10.1,0,0,1,103,29.52a8.37,8.37,0,0,1-6.4,2.79,7.27,7.27,0,0,1-4-1.06,7.77,7.77,0,0,1-2.7-2.82V41.08H86V12.9h4v3.4a7.43,7.43,0,0,1,2.68-2.69A7.64,7.64,0,0,1,96.58,12.59ZM99.8,27.1a6.5,6.5,0,0,0,1.74-4.74,6.21,6.21,0,0,0-1.72-4.64,5.73,5.73,0,0,0-8.18,0,6.39,6.39,0,0,0-1.71,4.68,6.44,6.44,0,0,0,1.71,4.7,5.6,5.6,0,0,0,8.16,0Z"/><path class="cls-1" d="M110,29.52a10.07,10.07,0,0,1-2.6-7.14,9.85,9.85,0,0,1,2.58-7.07,8.52,8.52,0,0,1,6.43-2.72,7.62,7.62,0,0,1,4,1A7.2,7.2,0,0,1,123,16.3V12.9h4V32h-4V28.43a7.38,7.38,0,0,1-2.67,2.82,7.27,7.27,0,0,1-3.95,1.06A8.41,8.41,0,0,1,110,29.52Zm11.32-2.39a6.44,6.44,0,0,0,1.71-4.7,6.39,6.39,0,0,0-1.71-4.68,5.7,5.7,0,0,0-8.15,0,6.24,6.24,0,0,0-1.71,4.64,6.57,6.57,0,0,0,1.71,4.74,5.59,5.59,0,0,0,8.15,0Z"/><path class="cls-2" d="M27.24,22.26l-2.9,2.9a.68.68,0,0,1-.26.18.85.85,0,0,1-.31.06h0a.81.81,0,0,1-.31-.06A.82.82,0,0,1,23,24.9a.74.74,0,0,1-.07-.32V19.67a.82.82,0,0,1,1.64,0V22.6l1.5-1.49a.82.82,0,0,1,1.16,0A.81.81,0,0,1,27.24,22.26Z"/><path class="cls-2" d="M16.39,18.81V15.57l0,0-4.13,2.6a3.27,3.27,0,0,0-2.38-.87,3.16,3.16,0,0,0-2.47,1L3.31,15.88a1.58,1.58,0,0,0,1.26-1.42A1.72,1.72,0,0,0,2.85,13l4.39-2.76-.67-.4L0,13.93v.82l.3.2L0,14.77v2.44l9.83,5.73Z"/><path class="cls-2" d="M22.12,0V0L15.89,3.93l.67.39,3.82-2.4s0,.05,0,.08a1.59,1.59,0,0,0,1.75,1.33A1.6,1.6,0,0,0,23.88,2a1,1,0,0,0,0-.17L29.31,5,29,5c-1.5,0-2.72.74-2.72,1.65,0,.71.73,1.31,1.77,1.55l-2.39,1.5,0,0v3.22L32,9V5.74Z"/><path class="cls-2" d="M25.71,14.58,32,10.65v2.46l-5,3.13a7.78,7.78,0,0,1,1.39.76L32,14.75v2.46l-2,1.24a8.19,8.19,0,1,1-13.71,8.63L9.83,31.14,0,25.4V22.94l9.83,5.74L15.67,25a8.41,8.41,0,0,1-.1-1.24c0-.11,0-.23,0-.34L9.83,27,0,21.3V18.85l9.83,5.73,6.39-4a8.42,8.42,0,0,1,2.13-2.94V14.69L7.55,8.42l6.39-4L24.4,10.47V15.6a9.18,9.18,0,0,1,1.31.21Z"/><circle class="cls-1" cx="23.76" cy="23.76" r="6.56"/><path class="cls-3" d="M23.76,15.61a8.2,8.2,0,1,0,8.2,8.2A8.2,8.2,0,0,0,23.76,15.61Zm1.89,11.57-2.92-2.12a.39.39,0,0,1-.16-.32V19.18a.4.4,0,0,1,.4-.4h1.59a.4.4,0,0,1,.39.4v4.55l2.1,1.53a.4.4,0,0,1,.09.55l-.94,1.28a.39.39,0,0,1-.55.09Z"/></g></g></svg>