<svg xmlns="http://www.w3.org/2000/svg" viewBox="0 0 80.72 74.43"><defs><style>.cls-1{fill:#ffffff;}.cls-2{fill:#1dc4bd;}.cls-3{fill:#fff;}.cls-4{fill:#25969b;}</style></defs><title>kopa</title><g id="Layer_2" data-name="Layer 2"><g id="Layer_1-2" data-name="Layer 1"><path class="cls-1" d="M4,65.35H0V39.7H4V54.6l6.93-8.35h5.48l-8.8,9.57,8.8,9.53H11L4,57.13Z"/><path class="cls-1" d="M26.71,65.66a9.29,9.29,0,0,1-6.88-2.72,9.65,9.65,0,0,1-2.71-7.14,9.43,9.43,0,0,1,9.74-9.86,9.43,9.43,0,0,1,9.74,9.84,9.41,9.41,0,0,1-2.86,7.14A9.77,9.77,0,0,1,26.71,65.66Zm4.1-5.06a6.49,6.49,0,0,0,1.74-4.82A6.55,6.55,0,0,0,30.86,51a5.48,5.48,0,0,0-4.07-1.71,5.34,5.34,0,0,0-4,1.71,6.72,6.72,0,0,0-1.63,4.82,6.79,6.79,0,0,0,1.6,4.82,5.19,5.19,0,0,0,4,1.71A5.57,5.57,0,0,0,30.81,60.6Z"/><path class="cls-1" d="M50.33,45.94a8.46,8.46,0,0,1,6.41,2.72,9.88,9.88,0,0,1,2.56,7.07,10.1,10.1,0,0,1-2.58,7.14,8.35,8.35,0,0,1-6.39,2.79,7.31,7.31,0,0,1-4-1.06,7.77,7.77,0,0,1-2.7-2.82V74.43h-4V46.25h4v3.4A7.46,7.46,0,0,1,46.36,47,7.59,7.59,0,0,1,50.33,45.94Zm3.22,14.5a6.51,6.51,0,0,0,1.73-4.73,6.24,6.24,0,0,0-1.71-4.64,5.64,5.64,0,0,0-4.09-1.7,5.56,5.56,0,0,0-4.09,1.73,6.35,6.35,0,0,0-1.72,4.68,6.4,6.4,0,0,0,1.72,4.7,5.59,5.59,0,0,0,8.16,0Z"/><path class="cls-1" d="M63.7,62.87a10.07,10.07,0,0,1-2.6-7.14,9.81,9.81,0,0,1,2.59-7.07,8.51,8.51,0,0,1,6.43-2.72,7.58,7.58,0,0,1,4,1,7.22,7.22,0,0,1,2.66,2.69v-3.4h4v19.1h-4V61.78a7.54,7.54,0,0,1-2.67,2.82,7.27,7.27,0,0,1-3.95,1.06A8.43,8.43,0,0,1,63.7,62.87ZM75,60.48a6.44,6.44,0,0,0,1.72-4.7A6.39,6.39,0,0,0,75,51.1a5.69,5.69,0,0,0-8.14,0,6.21,6.21,0,0,0-1.72,4.64,6.5,6.5,0,0,0,1.72,4.73,5.56,5.56,0,0,0,8.14,0Z"/><path class="cls-2" d="M51.45,22.13,48.58,25a1,1,0,0,1-.27.17.8.8,0,0,1-.3.06h0a.8.8,0,0,1-.3-.06.79.79,0,0,1-.44-.44.81.81,0,0,1-.06-.31V19.54a.81.81,0,0,1,1.62,0v2.92L50.3,21a.81.81,0,0,1,1.15,1.15Z"/><path class="cls-2" d="M40.67,18.7V15.47h0L36.54,18a3.24,3.24,0,0,0-2.37-.86,3.13,3.13,0,0,0-2.45.95l-4-2.35a1.6,1.6,0,0,0,1.26-1.41,1.7,1.7,0,0,0-1.71-1.5l4.36-2.74-.67-.4-6.53,4.11v.82l.31.2-.31-.18V17.1l9.78,5.7Z"/><path class="cls-2" d="M46.37,0V0l-6.2,3.9.67.4,3.8-2.39s0,.05,0,.08a1.81,1.81,0,0,0,3.48,0,.88.88,0,0,0,0-.17L53.51,5l-.28,0c-1.5,0-2.71.74-2.71,1.64,0,.71.73,1.3,1.76,1.54L49.91,9.63l0,0v3.2L56.14,9V5.7Z"/><path class="cls-2" d="M49.94,14.49l6.2-3.9V13l-4.93,3.11a7.12,7.12,0,0,1,1.38.76l3.55-2.24V17.1l-2,1.23a8.14,8.14,0,1,1-13.63,8.58l-6.4,4-9.78-5.71V22.8l9.78,5.7L40,24.85a8.28,8.28,0,0,1-.1-1.23c0-.12,0-.23,0-.35l-5.71,3.6-9.78-5.7V18.73l9.78,5.7,6.35-4a8.26,8.26,0,0,1,2.11-2.91V14.6L31.89,8.37l6.35-4,10.4,6V15.5a8,8,0,0,1,1.3.22Z"/><circle class="cls-3" cx="48" cy="23.62" r="6.51"/><path class="cls-4" d="M48,15.52a8.14,8.14,0,1,0,8.14,8.14A8.13,8.13,0,0,0,48,15.52ZM49.87,27,47,24.91a.42.42,0,0,1-.16-.32V19.06a.39.39,0,0,1,.39-.39h1.58a.4.4,0,0,1,.39.39v4.52l2.09,1.52a.4.4,0,0,1,.08.55l-.92,1.28a.41.41,0,0,1-.56.08Z"/></g></g></svg>