<svg xmlns="http://www.w3.org/2000/svg" viewBox="0 0 125.34 31.8"><defs><style>.cls-1{fill:#fff;}.cls-2{fill:#25969b;}.cls-3{fill:#1dc4bd;}</style></defs><title>soko</title><g id="Layer_2" data-name="Layer 2"><g id="Layer_1-2" data-name="Layer 1"><path class="cls-1" d="M48.85,17.87a5.14,5.14,0,0,1,2-4.11,8.22,8.22,0,0,1,5.38-1.68,8,8,0,0,1,5.28,1.65,5.94,5.94,0,0,1,2.1,4.49H59.59a3.16,3.16,0,0,0-1-2.22,3.54,3.54,0,0,0-2.47-.8,4,4,0,0,0-2.5.71,2.28,2.28,0,0,0-.9,1.87,2,2,0,0,0,1.14,1.82,8.8,8.8,0,0,0,2.79,1c1.1.21,2.2.47,3.3.77A6.08,6.08,0,0,1,62.75,23a4.47,4.47,0,0,1,1.14,3.21,4.83,4.83,0,0,1-2.1,4A8.79,8.79,0,0,1,56.4,31.8a8.43,8.43,0,0,1-5.33-1.59,6,6,0,0,1-2.26-4.54H52.9a3.08,3.08,0,0,0,1,2.22,3.83,3.83,0,0,0,2.55.79A4.19,4.19,0,0,0,59.06,28,2.24,2.24,0,0,0,60,26.08a2,2,0,0,0-1.15-1.83,9.13,9.13,0,0,0-2.79-1c-1.09-.22-2.19-.47-3.29-.76A6.05,6.05,0,0,1,50,20.92,4.13,4.13,0,0,1,48.85,17.87Z"/><path class="cls-1" d="M75.73,31.8a9.25,9.25,0,0,1-6.88-2.72,9.65,9.65,0,0,1-2.71-7.14,9.74,9.74,0,1,1,19.48,0,9.44,9.44,0,0,1-2.86,7.14A9.78,9.78,0,0,1,75.73,31.8Zm4.1-5.06a6.48,6.48,0,0,0,1.74-4.81,6.56,6.56,0,0,0-1.68-4.8,5.49,5.49,0,0,0-4.08-1.72,5.32,5.32,0,0,0-4,1.72,6.73,6.73,0,0,0-1.63,4.81,6.78,6.78,0,0,0,1.6,4.82,5.2,5.2,0,0,0,4,1.72A5.58,5.58,0,0,0,79.83,26.74Z"/><path class="cls-1" d="M92.69,31.49h-4V5.84h4V20.75l6.93-8.36h5.48L96.3,22l8.8,9.53H99.76l-7.07-8.21Z"/><path class="cls-1" d="M115.45,31.8a9.25,9.25,0,0,1-6.88-2.72,9.65,9.65,0,0,1-2.71-7.14,9.74,9.74,0,1,1,19.48,0,9.44,9.44,0,0,1-2.86,7.14A9.78,9.78,0,0,1,115.45,31.8Zm4.1-5.06a6.48,6.48,0,0,0,1.74-4.81,6.52,6.52,0,0,0-1.69-4.8,5.46,5.46,0,0,0-4.07-1.72,5.32,5.32,0,0,0-4,1.72,6.73,6.73,0,0,0-1.63,4.81,6.78,6.78,0,0,0,1.6,4.82,5.2,5.2,0,0,0,4,1.72A5.58,5.58,0,0,0,119.55,26.74Z"/><path class="cls-2" d="M35.42,13,29.33,2.42a2.44,2.44,0,0,0-1.17-2L27.93,0l-.27.16a2.44,2.44,0,1,0-.77,4.75,2.48,2.48,0,0,0,.95-.19L32.6,13H6.8L11.52,4.8a2.69,2.69,0,0,0,.7.11,2.45,2.45,0,1,0,0-4.89,2.25,2.25,0,0,0-.58.08L11.46,0l-.1.19A2.44,2.44,0,0,0,9.78,2.47a2.33,2.33,0,0,0,0,.38L4,13H0V16.5H39.11V13Z"/><path class="cls-3" d="M3.67,17.68,7.48,31.8H31.63l3.82-14.12Zm9.78,11.77H11V20h2.45Zm4.89,0H15.89V20h2.45Zm4.88,0H20.78V20h2.44Zm4.89,0H25.67V20h2.44Z"/></g></g></svg>