<svg xmlns="http://www.w3.org/2000/svg" viewBox="0 0 76.53 74.43"><defs><style>.cls-1{fill:#ffffff;}.cls-2{fill:#25969b;}.cls-3{fill:#1dc4bd;}.cls-4{fill:none;}</style></defs><title>soko</title><g id="Layer_2" data-name="Layer 2"><g id="Layer_1-2" data-name="Layer 1"><path class="cls-1" d="M0,51.73a5.14,5.14,0,0,1,2-4.11,8.18,8.18,0,0,1,5.37-1.68,8,8,0,0,1,5.29,1.65,5.94,5.94,0,0,1,2.09,4.48H10.78a3.16,3.16,0,0,0-1-2.21,3.52,3.52,0,0,0-2.48-.8,3.94,3.94,0,0,0-2.49.71,2.27,2.27,0,0,0-.9,1.87,2,2,0,0,0,1.14,1.82,8.87,8.87,0,0,0,2.79,1c1.1.21,2.2.46,3.29.76a5.92,5.92,0,0,1,2.79,1.65,4.43,4.43,0,0,1,1.15,3.21,4.83,4.83,0,0,1-2.1,4,8.79,8.79,0,0,1-5.39,1.56,8.48,8.48,0,0,1-5.34-1.59A6,6,0,0,1,0,59.53H4.09a3.08,3.08,0,0,0,1,2.21,3.75,3.75,0,0,0,2.55.8,4.14,4.14,0,0,0,2.56-.71,2.23,2.23,0,0,0,1-1.89,2.06,2.06,0,0,0-1.15-1.84,9.4,9.4,0,0,0-2.79-1c-1.1-.22-2.19-.48-3.29-.77a6,6,0,0,1-2.79-1.57A4.14,4.14,0,0,1,0,51.73Z"/><path class="cls-1" d="M26.91,65.66A9.32,9.32,0,0,1,20,62.94a9.68,9.68,0,0,1-2.7-7.14,9.43,9.43,0,0,1,9.74-9.86,9.43,9.43,0,0,1,9.74,9.84A9.41,9.41,0,0,1,34,62.92,9.77,9.77,0,0,1,26.91,65.66ZM31,60.6a6.48,6.48,0,0,0,1.73-4.82A6.59,6.59,0,0,0,31.07,51,5.5,5.5,0,0,0,27,49.27,5.34,5.34,0,0,0,23,51a6.72,6.72,0,0,0-1.63,4.82,6.83,6.83,0,0,0,1.59,4.82,5.22,5.22,0,0,0,4,1.71A5.58,5.58,0,0,0,31,60.6Z"/><path class="cls-1" d="M43.88,65.35h-4V39.7h4V54.6l6.93-8.35h5.48l-8.81,9.57,8.81,9.53H51l-7.07-8.22Z"/><path class="cls-1" d="M66.63,65.66a9.32,9.32,0,0,1-6.88-2.72,9.68,9.68,0,0,1-2.7-7.14,9.74,9.74,0,1,1,19.48,0,9.41,9.41,0,0,1-2.86,7.14A9.77,9.77,0,0,1,66.63,65.66Zm4.11-5.06a6.48,6.48,0,0,0,1.73-4.82A6.59,6.59,0,0,0,70.79,51a5.5,5.5,0,0,0-4.07-1.71,5.33,5.33,0,0,0-4,1.71,6.72,6.72,0,0,0-1.63,4.82,6.83,6.83,0,0,0,1.59,4.82,5.22,5.22,0,0,0,4,1.71A5.59,5.59,0,0,0,70.74,60.6Z"/><path class="cls-2" d="M54.13,13,48,2.42a2.45,2.45,0,0,0-1.18-2L46.64,0l-.27.16A2.5,2.5,0,0,0,45.6,0a2.45,2.45,0,1,0,0,4.89,2.47,2.47,0,0,0,.94-.19L51.31,13H25.51L30.23,4.8a2.63,2.63,0,0,0,.7.11,2.45,2.45,0,1,0,0-4.89,2.2,2.2,0,0,0-.58.08L30.17,0l-.11.19a2.43,2.43,0,0,0-1.57,2.28,2.34,2.34,0,0,0,0,.38L22.68,13h-4V16.5H57.82V13Z"/><path class="cls-3" d="M22.37,17.68,26.19,31.8H50.34l3.81-14.12Zm9.78,11.77H29.71V20h2.44Zm4.89,0H34.6V20H37Zm4.89,0H39.49V20h2.44Zm4.89,0H44.38V20h2.44Z"/><rect class="cls-4" x="33.6" y="65.35" width="14.23" height="9.08"/></g></g></svg>