<?xml version="1.0" encoding="utf-8"?>
<!-- Generator: Adobe Illustrator 19.2.0, SVG Export Plug-In . SVG Version: 6.00 Build 0)  -->
<!DOCTYPE svg PUBLIC "-//W3C//DTD SVG 1.1//EN" "http://www.w3.org/Graphics/SVG/1.1/DTD/svg11.dtd">
<svg version="1.1" id="Layer_1" xmlns="http://www.w3.org/2000/svg" xmlns:xlink="http://www.w3.org/1999/xlink" x="0px" y="0px"
	 viewBox="0 0 268.3 194.9" style="enable-background:new 0 0 268.3 194.9;" xml:space="preserve">
<style type="text/css">
	.st0{opacity:0.6;fill:#FFFFFF;}
	.st1{fill:#FFFFFF;}
</style>
<g>
	<polygon class="st0" points="118.5,22.4 130.3,70.8 159.6,71 	"/>
	<g>
		<polygon class="st1" points="63.5,85.6 84.5,89.3 21.3,104.7 		"/>
		<polygon class="st0" points="132,77.8 129.4,67.4 103.9,69.5 87.2,59.4 85.7,75.6 63.5,85.6 84.5,89.3 137,98.5 		"/>
		<polygon class="st1" points="14.5,77 98.1,70 63.5,85.6 		"/>
	</g>
	<g>
		<polygon class="st1" points="166.6,69.3 159.6,71 176,78 		"/>
		<polygon class="st0" points="159.6,71 28.7,15 132,77.8 176,78 		"/>
	</g>
	<polygon class="st1" points="159.6,71 137,98.5 28.7,15 	"/>
	<g>
		<path class="st1" d="M98.7,119.6h9.4l-14.3,46.2H83.7l-9.3-34.1l-9.3,34.1H55l-14.4-46.2h9.7l9.6,37.1l9.8-37.1h10l9.4,37
			L98.7,119.6z"/>
		<path class="st1" d="M116.2,159.8c-4.2-4.5-6.3-10.3-6.3-17.3c0-7,2.1-12.7,6.2-17.1c4.2-4.4,9.3-6.6,15.6-6.6
			c3.6,0,6.8,0.8,9.6,2.5c2.8,1.6,4.9,3.8,6.4,6.5v-8.2h9.6v46.2h-9.6v-8.6c-1.6,2.9-3.7,5.1-6.5,6.8c-2.7,1.7-5.9,2.6-9.6,2.6
			C125.6,166.5,120.4,164.3,116.2,159.8z M143.6,154c2.8-2.8,4.1-6.6,4.1-11.4c0-4.8-1.4-8.5-4.1-11.3c-2.8-2.8-6.1-4.2-9.9-4.2
			c-3.8,0-7.1,1.4-9.9,4.1c-2.8,2.7-4.1,6.5-4.1,11.2c0,4.8,1.4,8.6,4.1,11.4c2.8,2.9,6,4.3,9.9,4.3
			C137.5,158.2,140.8,156.8,143.6,154z"/>
		<path class="st1" d="M167.9,165.8v-62h9.6v62H167.9z"/>
		<path class="st1" d="M191,159.8c-4.2-4.5-6.3-10.3-6.3-17.3c0-7,2.1-12.7,6.2-17.1c4.2-4.4,9.3-6.6,15.6-6.6
			c3.6,0,6.8,0.8,9.6,2.5c2.8,1.6,4.9,3.8,6.4,6.5v-8.2h9.6v46.2h-9.6v-8.6c-1.6,2.9-3.7,5.1-6.5,6.8c-2.7,1.7-5.9,2.6-9.6,2.6
			C200.4,166.5,195.2,164.3,191,159.8z M218.4,154c2.8-2.8,4.1-6.6,4.1-11.4c0-4.8-1.4-8.5-4.1-11.3c-2.8-2.8-6.1-4.2-9.9-4.2
			c-3.8,0-7.1,1.4-9.9,4.1c-2.8,2.7-4.2,6.5-4.2,11.2c0,4.8,1.4,8.6,4.2,11.4c2.8,2.9,6,4.3,9.9,4.3
			C212.3,158.2,215.6,156.8,218.4,154z"/>
	</g>
</g>
</svg>
