<svg xmlns="http://www.w3.org/2000/svg" viewBox="0 0 49.75 16.23"><defs><style>.cls-1{fill:#fff;}.cls-2{fill:#1dc4bd;}.cls-3{fill:#5d598d;}.cls-4{fill:#908cc0;}.cls-5{fill:#746fb0;}</style></defs><title>DalaHorizontalLogo</title><g id="Layer_2" data-name="Layer 2"><g id="Layer_1-2" data-name="Layer 1"><path class="cls-1" d="M27.55,2.7h-.88V1.44H25V2.7H23.73v1H25v.59h0V5.73a3.17,3.17,0,0,0-1.14-1.16,3.32,3.32,0,0,0-1.71-.44,3.63,3.63,0,0,0-2.77,1.18,4.19,4.19,0,0,0-1.12,3,4.37,4.37,0,0,0,1.12,3.08,3.64,3.64,0,0,0,2.77,1.2,3.2,3.2,0,0,0,1.7-.45A3.29,3.29,0,0,0,25,11V12.5h1.72V3.68h.88Zm-3.34,7.7a2.4,2.4,0,0,1-3.51,0,2.86,2.86,0,0,1-.74-2,2.72,2.72,0,0,1,.74-2,2.44,2.44,0,0,1,1.76-.73,2.38,2.38,0,0,1,1.75.75,2.76,2.76,0,0,1,.74,2A2.77,2.77,0,0,1,24.21,10.4Z"/><path class="cls-1" d="M29.09,11.43A4.33,4.33,0,0,1,28,8.35a4.23,4.23,0,0,1,1.11-3,3.64,3.64,0,0,1,2.77-1.18,3.3,3.3,0,0,1,1.71.44,3.12,3.12,0,0,1,1.15,1.16V4.27h1.71V12.5H34.71V11a3.37,3.37,0,0,1-1.15,1.22,3.21,3.21,0,0,1-1.71.45A3.64,3.64,0,0,1,29.09,11.43Zm4.88-1a2.77,2.77,0,0,0,.74-2,2.76,2.76,0,0,0-.74-2,2.45,2.45,0,0,0-3.51,0,2.68,2.68,0,0,0-.74,2,2.81,2.81,0,0,0,.74,2,2.34,2.34,0,0,0,1.75.77A2.41,2.41,0,0,0,34,10.4Z"/><path class="cls-1" d="M38.29,12.5V1.44H40V12.5Z"/><path class="cls-1" d="M42.42,11.43A4.33,4.33,0,0,1,41.3,8.35a4.23,4.23,0,0,1,1.11-3,3.63,3.63,0,0,1,2.77-1.18,3.3,3.3,0,0,1,1.71.44A3.17,3.17,0,0,1,48,5.73V4.27h1.72V12.5H48V11a3.29,3.29,0,0,1-1.15,1.22,3.17,3.17,0,0,1-1.7.45A3.61,3.61,0,0,1,42.42,11.43Zm4.87-1a2.73,2.73,0,0,0,.74-2,2.72,2.72,0,0,0-.74-2,2.36,2.36,0,0,0-1.75-.75,2.46,2.46,0,0,0-1.76.73,2.72,2.72,0,0,0-.74,2,2.86,2.86,0,0,0,.74,2,2.4,2.4,0,0,0,3.51,0Z"/><g id="Layer_2-2" data-name="Layer 2"><g id="Layer_2-2-2" data-name="Layer 2-2"><path class="cls-2" d="M7.87.08a1,1,0,0,0-.78,0L.39,3.43A.79.79,0,0,0,0,4.06v8.11a.79.79,0,0,0,.39.63l6.7,3.35a1,1,0,0,0,.78,0l6.7-3.35a.76.76,0,0,0,.39-.63V4.06a.76.76,0,0,0-.39-.63Z"/><polygon class="cls-3" points="7.48 1.38 13.47 4.37 13.47 11.86 7.48 8.86 7.48 1.38"/><polygon class="cls-4" points="1.5 11.86 7.48 8.86 7.48 1.38 1.5 4.37 1.5 11.86"/><polygon class="cls-5" points="7.48 14.85 1.5 11.86 7.48 8.86 13.47 11.86 7.48 14.85"/><path class="cls-1" d="M10.57,5.24H10V4.41H8.86v.83H8v.65h.81v.39h0v1a2.13,2.13,0,0,0-.75-.77A2.25,2.25,0,0,0,7,6.19,2.41,2.41,0,0,0,5.13,7a2.82,2.82,0,0,0-.74,2,2.88,2.88,0,0,0,.74,2,2.43,2.43,0,0,0,1.83.8,2.1,2.1,0,0,0,1.13-.3,2.19,2.19,0,0,0,.76-.81v1H10V5.89h.58Zm-2.21,5.1a1.57,1.57,0,0,1-1.16.5A1.54,1.54,0,0,1,6,10.33,1.85,1.85,0,0,1,5.55,9,1.75,1.75,0,0,1,6,7.66a1.61,1.61,0,0,1,2.32,0A1.79,1.79,0,0,1,8.85,9,1.81,1.81,0,0,1,8.36,10.34Z"/></g></g></g></g></svg>