<svg xmlns="http://www.w3.org/2000/svg" viewBox="0 0 242.01 134.53"><defs><style>.cls-1{fill:#1dc4bd;}.cls-2{fill:#25969b;}</style></defs><title>Asset 2</title><g id="Layer_2" data-name="Layer 2"><g id="Layer_1-2" data-name="Layer 1"><polygon class="cls-1" points="242.01 94.53 227.85 81.5 196.75 89.08 242.01 94.53"/><polygon class="cls-2" points="104.91 111.44 108.88 66.54 160.46 97.92 104.91 111.44"/><polygon class="cls-2" points="155.81 11.18 173.48 83.76 217.49 84.03 155.81 11.18"/><polygon class="cls-1" points="73.43 105.93 104.91 111.44 10.1 134.53 73.43 105.93"/><polygon class="cls-1" points="0 93.05 125.25 82.53 73.43 105.93 0 93.05"/><polygon class="cls-2" points="125.25 82.53 172.22 78.58 176.01 94.13 183.58 125.24 104.91 111.44 73.43 105.93 125.25 82.53"/><polygon class="cls-2" points="21.28 0 242.01 94.53 176.01 94.13 21.28 0"/><polygon class="cls-1" points="217.49 84.03 183.58 125.24 21.28 0 217.49 84.03"/></g></g></svg>