<svg xmlns="http://www.w3.org/2000/svg" viewBox="0 0 191.56 62.79"><defs><style>.cls-1{fill:#fff;}</style></defs><title>wala-logotype</title><g id="Layer_2" data-name="Layer 2"><g id="Layer_1-2" data-name="Layer 1"><path class="cls-1" d="M58.1,15.84h9.39L53.15,62H43.09l-9.3-34.12L24.48,62H14.42L0,15.84H9.73L19.37,53l9.8-37.14h10l9.39,37Z"/><path class="cls-1" d="M75.62,56q-6.28-6.74-6.29-17.27t6.25-17.1a20.53,20.53,0,0,1,15.55-6.58,18.49,18.49,0,0,1,9.6,2.47,17.52,17.52,0,0,1,6.41,6.5V15.84h9.64V62h-9.64V53.4a18.34,18.34,0,0,1-6.45,6.84,17.77,17.77,0,0,1-9.56,2.55A20.35,20.35,0,0,1,75.62,56ZM103,50.26q4.16-4.23,4.15-11.36T103,27.58a13.76,13.76,0,0,0-19.7-.08q-4.16,4.11-4.15,11.23t4.15,11.45a13.5,13.5,0,0,0,19.7.08Z"/><path class="cls-1" d="M127.26,62V0h9.56V62Z"/><path class="cls-1" d="M150.4,56q-6.28-6.74-6.29-17.27t6.25-17.1a20.55,20.55,0,0,1,15.55-6.58,18.49,18.49,0,0,1,9.6,2.47,17.52,17.52,0,0,1,6.41,6.5V15.84h9.64V62h-9.64V53.4a18.34,18.34,0,0,1-6.45,6.84,17.77,17.77,0,0,1-9.56,2.55A20.35,20.35,0,0,1,150.4,56Zm27.37-5.78q4.15-4.23,4.15-11.36t-4.15-11.32a13.76,13.76,0,0,0-19.7-.08q-4.15,4.11-4.15,11.23t4.15,11.45a13.5,13.5,0,0,0,19.7.08Z"/></g></g></svg>